<?xml version="1.0" standalone="no"?>
<!DOCTYPE svg PUBLIC "-//W3C//DTD SVG 20010904//EN"
 "http://www.w3.org/TR/2001/REC-SVG-20010904/DTD/svg10.dtd">
<svg version="1.0" xmlns="http://www.w3.org/2000/svg"
 width="479.000000pt" height="479.000000pt" viewBox="0 0 479.000000 479.000000"
 preserveAspectRatio="xMidYMid meet">
<metadata>
Created by potrace 1.11, written by Peter Selinger 2001-2013
</metadata>
<g transform="translate(0.000000,479.000000) scale(0.100000,-0.100000)"
fill="#000000" stroke="none">
<path d="M1758 4569 c-13 -7 -16 -20 -13 -57 8 -95 16 -198 20 -257 2 -33 7
-91 10 -130 3 -38 7 -104 10 -145 13 -188 15 -218 20 -265 2 -27 7 -93 10
-145 3 -52 8 -113 10 -135 2 -22 7 -89 11 -150 3 -60 8 -113 10 -116 5 -10
-25 -33 -91 -69 -33 -18 -76 -43 -95 -55 -19 -12 -186 -109 -370 -215 -184
-106 -371 -214 -415 -240 -113 -67 -287 -167 -533 -309 -215 -125 -233 -141
-197 -171 12 -10 86 29 432 230 230 134 436 253 459 266 22 12 118 68 213 123
95 56 176 101 182 101 5 0 9 5 9 10 0 6 4 10 9 10 4 0 60 30 122 66 63 37 143
82 179 102 36 19 76 44 89 54 13 10 29 18 36 18 12 0 299 -150 555 -290 61
-33 112 -60 114 -60 3 0 35 -17 73 -38 37 -22 109 -60 158 -87 147 -78 217
-116 270 -145 28 -15 100 -53 160 -85 61 -32 124 -66 140 -75 17 -10 59 -33
95 -52 280 -149 268 -141 275 -180 3 -13 14 -68 25 -123 11 -55 22 -111 25
-125 3 -14 12 -60 21 -103 8 -42 17 -90 20 -105 3 -15 7 -34 9 -42 2 -8 7 -28
10 -45 2 -16 7 -39 9 -50 5 -21 124 -615 130 -650 45 -235 118 -585 126 -602
11 -26 32 -30 50 -8 12 15 6 50 -51 320 -10 50 -21 105 -24 123 -3 18 -21 108
-40 200 -19 92 -36 178 -38 192 -3 14 -17 84 -31 155 -15 72 -28 139 -30 150
-13 66 -129 643 -132 660 -22 101 -22 101 5 125 57 50 129 116 192 174 58 54
241 224 310 287 15 13 75 69 135 124 175 160 236 223 229 234 -3 6 -14 15 -24
20 -14 8 -28 0 -72 -41 -30 -27 -76 -70 -104 -95 -27 -25 -81 -75 -120 -112
-38 -37 -122 -111 -185 -165 -244 -209 -303 -264 -398 -369 l-33 -36 -82 48
c-45 26 -147 83 -227 126 -80 43 -167 90 -195 105 -27 15 -95 51 -150 80 -55
29 -122 65 -150 80 -51 28 -255 137 -405 218 -176 94 -217 117 -308 174 -118
73 -215 125 -264 140 -33 10 -38 15 -39 42 -3 55 -6 100 -12 176 -4 41 -9 113
-12 160 -3 47 -8 105 -10 130 -2 25 -7 88 -10 140 -3 52 -8 115 -10 140 -3 25
-7 83 -10 130 -3 47 -8 105 -10 130 -2 25 -7 92 -11 150 -3 58 -7 114 -9 125
-1 11 -3 37 -4 57 -1 42 -25 63 -53 47z"/>
<path d="M3595 4570 c-174 -34 -321 -150 -394 -311 -154 -341 102 -740 476
-741 86 -1 111 3 186 28 164 54 302 219 345 409 14 65 5 167 -23 250 -57 170
-174 291 -335 345 -70 24 -187 33 -255 20z m201 -90 c120 -27 253 -130 304
-235 69 -142 65 -272 -11 -414 -137 -259 -533 -314 -743 -105 -78 79 -120 180
-125 302 -12 314 255 524 575 452z"/>
</g>
</svg>
